<?xml version="1.0" encoding="UTF-8" standalone="no"?>
<svg width="129px" height="75px" viewBox="0 0 129 75" version="1.1" xmlns="http://www.w3.org/2000/svg" xmlns:xlink="http://www.w3.org/1999/xlink">
    <!-- Generator: Sketch 45.1 (43504) - http://www.bohemiancoding.com/sketch -->
    <title>Powerscreen Copy 2</title>
    <desc>Created with Sketch.</desc>
    <defs></defs>
    <g id="01-Home" stroke="none" stroke-width="1" fill="none" fill-rule="evenodd">
        <g id="01-home-mobile-1280" transform="translate(-864.000000, -2545.000000)" fill="#BFBDBD">
            <g id="Group-5" transform="translate(79.000000, 2545.000000)">
                <g id="Powerscreen-Copy-2" transform="translate(785.233055, 0.000000)">
                    <path d="M78.9017948,0.199722938 C79.972809,0.199722938 81.0322768,0.244348531 82.0801981,0.333599719 L82.0801981,35.5940602 L78.8459347,35.5940602 L78.8459347,34.0237386 C80.6631014,33.239202 81.9329024,31.4938107 81.9329024,29.4731763 C81.9329024,27.4522298 80.6631014,25.7037179 78.8459347,24.9188692 L78.8459347,0.200347072 C78.8646588,0.200347072 78.8830707,0.199722938 78.9017948,0.199722938 Z M82.303014,56.534074 L82.303014,74.0107673 C81.2554047,74.1012667 79.972809,74.149325 78.9017948,74.149325 C78.8830707,74.149325 78.8646588,74.1487009 78.8459347,74.1487009 L78.8459347,56.534074 L82.303014,56.534074 Z M75.7979755,74.0160724 C74.7603524,73.9290057 73.7367723,73.7951289 72.7250508,73.623492 L72.7250508,56.534074 L75.7979755,56.534074 L75.7979755,74.0160724 Z M72.7250508,35.5940602 L72.7250508,33.7856314 C74.2810174,32.9190211 75.3289386,31.3100032 75.3289386,29.4731763 C75.3289386,27.6360374 74.2810174,26.0232746 72.7250508,25.1566643 L72.7250508,0.720874978 C73.7367723,0.549238078 74.7603524,0.417857833 75.7979755,0.330791115 L75.7979755,35.5940602 L72.7250508,35.5940602 Z M69.6770916,72.9750166 C68.6429012,72.7075751 67.6271229,72.3945718 66.6294444,72.041936 L66.6294444,56.534074 L69.6770916,56.534074 L69.6770916,72.9750166 Z M66.6294444,35.5940602 L66.6294444,33.8380587 C68.0824287,32.9489796 69.0467161,31.397382 69.0467161,29.6342029 C69.0467161,27.8710239 68.0824287,26.3153694 66.6294444,25.4262903 L66.6294444,2.29962239 C67.6271229,1.94698657 68.6429012,1.63616775 69.6770916,1.36841419 L69.6770916,35.5940602 L66.6294444,35.5940602 Z M63.0016645,70.4269888 C62.2377242,70.0550048 61.2678197,69.655871 60.5338379,69.2330201 L60.5338379,56.534074 L63.0016645,56.534074 L63.0016645,70.4269888 Z M60.5338379,35.5940602 L60.5338379,33.3515461 C61.6061004,32.4356292 62.2817257,31.109032 62.2817257,29.6342029 C62.2817257,28.1590618 61.6061004,26.8293439 60.5338379,25.913427 L60.5338379,5.10510552 C61.2678197,4.68256668 62.0155324,4.28530528 62.7794727,3.91300924 L62.7794727,35.5940602 L60.5338379,35.5940602 Z M56.6838662,66.6831199 C56.0241564,66.1853729 55.3831706,65.6642209 54.7590364,65.1243448 L54.7590364,56.534074 L56.6838662,56.534074 L56.6838662,66.6831199 Z M54.7590364,35.5940602 L54.7590364,32.7065034 C55.6281433,31.8146157 56.1605297,30.6212711 56.1605297,29.3121497 C56.1605297,28.0027162 55.6281433,26.806563 54.7590364,25.9146753 L54.7590364,9.21066016 C55.3831706,8.67015996 56.0241564,8.15119239 56.6838662,7.65313331 L56.6838662,35.5940602 L54.7590364,35.5940602 Z M49.9466498,60.1103629 C49.3268846,59.3308193 48.7386381,58.52475 48.1822225,57.6962119 L48.1822225,56.534074 L49.9466498,56.534074 L49.9466498,60.1103629 Z M48.1822225,35.5940602 L48.1822225,32.6634382 C48.9402334,31.7968279 49.3955393,30.6852449 49.3955393,29.4731763 C49.3955393,28.2611077 48.9402334,27.146092 48.1822225,26.2794817 L48.1822225,16.6403534 C48.7386381,15.8108791 49.3268846,15.0060581 49.9466498,14.2258904 L49.9466498,35.5940602 L48.1822225,35.5940602 Z M41.9605409,35.5940602 C42.0878643,32.6094506 42.5709441,29.7159645 43.3698359,26.9522984 L43.3698359,35.5940602 L41.9605409,35.5940602 Z M85.1278453,0.722123246 C86.3105795,0.924030653 87.4761501,1.18335841 88.6183157,1.49573756 L88.6183157,35.5940602 L85.1278453,35.5940602 L85.1278453,33.7887521 C86.8585693,32.9726967 88.0537863,31.2722431 88.0537863,29.3121497 C88.0537863,27.3517442 86.8585693,25.6472338 85.1278453,24.8311783 L85.1278453,0.722123246 Z M88.6183157,56.534074 L88.6183157,72.8451967 C87.4761501,73.1588241 86.3105795,73.4162794 85.1278453,73.6194351 L85.1278453,56.534074 L88.6183157,56.534074 Z M91.0877025,2.26560707 C92.5060475,2.76366615 93.8878805,3.34723161 95.2225915,4.0081897 L95.2225915,35.5940602 L91.0877025,35.5940602 L91.0877025,34.3114645 C93.0746337,33.6018239 94.4970355,31.7721746 94.4970355,29.6342029 C94.4970355,27.4962313 93.0746337,25.6631492 91.0877025,24.9535086 L91.0877025,2.26560707 Z M95.2225915,56.534074 L95.2225915,70.3327445 C93.8878805,70.9937026 92.5060475,71.5741474 91.0877025,72.0731427 L91.0877025,56.534074 L95.2225915,56.534074 Z M97.2085864,5.06859367 C98.8272784,5.99699327 100.372323,7.04616282 101.826555,8.20018692 L101.826555,35.5940602 L97.2085864,35.5940602 L97.2085864,34.3367419 C99.5250605,33.8227674 101.262026,31.8352121 101.262026,29.4731763 C101.262026,27.1108284 99.5250605,25.1214007 97.2085864,24.6074262 L97.2085864,5.06859367 Z M101.826555,56.534074 L101.826555,66.1426197 C100.372323,67.29758 98.8272784,68.3445651 97.2085864,69.2729647 L97.2085864,56.534074 L101.826555,56.534074 Z M103.276419,9.4122555 C105.175347,11.0830627 106.905135,12.9454791 108.430831,14.9673618 L108.430831,35.5940602 L103.276419,35.5940602 L103.276419,34.7492946 C105.856902,34.4437809 107.866302,32.3363919 107.866302,29.7952295 C107.866302,27.2537552 105.856902,25.1448058 103.276419,24.83898 L103.276419,9.4122555 Z M108.430831,56.534074 L108.430831,59.3773173 C106.905135,61.399512 105.175347,63.2591198 103.276419,64.929927 L103.276419,56.534074 L108.430831,56.534074 Z M109.397303,16.3114347 C113.19984,21.8490652 115.538783,28.4651996 115.840864,35.5940602 L109.397303,35.5940602 L109.397303,34.4556395 C112.131011,34.2946128 114.309239,32.1195052 114.309239,29.4731763 C114.309239,26.8265353 112.131011,24.6501794 109.397303,24.4888407 L109.397303,16.3114347 Z M110.372513,56.534074 C110.058261,57.0418072 109.734647,57.5429869 109.397303,58.0341805 L109.397303,56.534074 L110.372513,56.534074 L110.372513,56.534074 Z" id="Fill-1"></path>
                    <path d="M25.1607212,37.3485014 L25.1607212,51.3262984 C25.1607212,51.3262984 25.4955692,54.3208942 27.6188737,54.3208942 L30.7563962,54.3208942 C31.6376736,54.4538348 32.7945063,54.2328913 33.3562271,52.6095183 C33.6339668,53.1259893 33.9195082,54.3208942 35.7245043,54.3208942 L39.332936,54.3208942 C39.332936,54.3208942 41.5320728,54.6148614 42.0526007,51.0632259 L42.0526007,37.3485014 L37.6075171,37.3485014 L37.6075171,48.8035481 C37.6075171,49.2560453 37.6415324,49.9338551 36.7508929,49.8826761 C35.6833114,49.9123224 35.9482564,49.2142284 35.8696155,48.724283 L35.8696155,37.3485014 L31.3842752,37.3485014 C31.3842752,37.3485014 31.3848993,48.1894 31.3842752,48.7829516 C31.4242198,49.6102415 31.1339974,49.8573986 30.4730393,49.8680089 C29.9437735,49.8758106 29.5995635,49.770644 29.6301461,48.83101 L29.6301461,37.3485014 L25.1607212,37.3485014" id="Fill-2"></path>
                    <path d="M52.1944691,37.3491255 L46.0436267,37.3491255 C43.7390113,37.4748886 43.2300298,39.2695864 43.2578038,42.6361662 L43.2578038,50.682504 C43.2325264,53.3516138 44.3416128,54.5696117 46.5847511,54.3368096 L52.2328533,54.3368096 L52.2328533,50.4103815 L47.7069443,50.4103815 L47.7069443,47.84519 L52.2727979,47.84519 L52.2727979,43.8794414 L47.7047598,43.8794414 L47.7047598,41.31425 L52.2328533,41.31425 L52.1944691,37.3491255" id="Fill-3"></path>
                    <path d="M105.86876,37.3491255 L99.7179179,37.3491255 C97.4136145,37.4748886 96.904321,39.2695864 96.9324071,42.6361662 L96.9324071,50.682504 C96.9071296,53.3516138 98.015904,54.5696117 100.259042,54.3368096 L105.907457,54.3368096 L105.907457,50.4103815 L101.381236,50.4103815 L101.381236,47.84519 L105.947401,47.84519 L105.947401,43.8794414 L101.379363,43.8794414 L101.379363,41.31425 L105.907457,41.31425 L105.86876,37.3491255" id="Fill-4"></path>
                    <path d="M115.944158,37.3491255 L109.793316,37.3491255 C107.489013,37.4748886 106.979719,39.2695864 107.007805,42.6361662 L107.007805,50.682504 C106.982528,53.3516138 108.091302,54.5696117 110.33444,54.3368096 L115.982855,54.3368096 L115.982855,50.4103815 L111.456634,50.4103815 L111.456634,47.84519 L116.022799,47.84519 L116.022799,43.8794414 L111.454449,43.8794414 L111.454449,41.31425 L115.982855,41.31425 L115.944158,37.3491255" id="Fill-5"></path>
                    <path d="M74.2844501,37.3491255 L74.2844501,41.3535704 L70.2993534,41.3535704 L70.2993534,42.9688297 C70.1383267,44.9922727 74.7063648,42.7506948 74.2844501,47.417034 L74.2844501,51.2657574 C74.3471756,53.7211013 73.1928394,54.3680163 71.3650625,54.3408665 L65.8099562,54.3408665 L65.8121407,50.3716852 L69.7576049,50.3716852 L69.7576049,48.7763982 C69.9102057,45.8935224 66.0795822,49.1343392 65.8121407,44.0744834 L65.8121407,41.7030856 C65.8246233,39.797916 66.3276755,37.8671569 67.6689398,37.3491255 L74.2844501,37.3491255" id="Fill-6"></path>
                    <path d="M83.7041952,37.3625444 L83.7041952,41.3389033 L81.8405305,41.3401515 C81.0544335,41.3454567 80.5663606,41.7214975 80.5098765,42.6386627 L80.5098765,48.8656494 C80.4718043,50.2259499 80.870626,50.398523 81.940392,50.4362831 L83.7394588,50.3922816 L83.7041952,54.3695767 L78.8846311,54.3695767 C77.0362577,54.338682 75.9883364,53.3085486 76.0217276,50.8182532 L76.0217276,40.7350535 C76.0429481,38.3755142 77.0534214,37.3550548 79.4747499,37.3519341 L83.7041952,37.3625444" id="Fill-7"></path>
                    <path d="M53.3937429,37.3491255 L53.3937429,54.3368096 L57.8812676,54.3368096 L57.8812676,48.1166884 L59.622602,48.1166884 L59.622602,52.2194344 C59.5938918,54.2169759 60.627458,54.2862548 61.6725707,54.3368096 L64.6512511,54.3368096 L64.6512511,52.8903787 C64.1266663,52.9037976 63.9328726,52.5296291 64.0708063,51.770682 L64.0708063,48.505524 C64.1073182,46.5632184 63.6420261,45.9022603 62.4074887,45.5514969 C63.6941413,45.1180357 64.1953211,44.1038177 64.148511,42.5787458 L64.148511,40.7157053 C64.2499328,38.5986422 63.0397366,37.616255 61.5102958,37.3538065 L53.3937429,37.3491255 Z M57.9184036,41.3220516 L57.9184036,43.5998293 L59.1950701,43.5998293 C60.3306822,43.5620692 60.287617,41.3208034 59.2184751,41.3220516 C58.8131,41.3220516 57.9184036,41.3220516 57.9184036,41.3220516 L57.9184036,41.3220516 Z" id="Fill-8"></path>
                    <path d="M85.1184833,37.3491255 L85.1184833,54.3368096 L89.606008,54.3368096 L89.606008,48.1166884 L91.3473424,48.1166884 L91.3473424,52.2194344 C91.3186322,54.2169759 92.3525105,54.2862548 93.3973111,54.3368096 L96.3759915,54.3368096 L96.3759915,52.8903787 C95.8514067,52.9037976 95.657613,52.5296291 95.7955467,51.770682 L95.7955467,48.505524 C95.8320585,46.5632184 95.3667665,45.9022603 94.1322291,45.5514969 C95.4188817,45.1180357 95.9200614,44.1038177 95.8735634,42.5787458 L95.8735634,40.7157053 C95.9746732,38.5986422 94.764477,37.616255 93.2350362,37.3538065 L85.1184833,37.3491255 Z M89.6434561,41.3220516 L89.6434561,43.5998293 L90.9201225,43.5998293 C92.0554226,43.5620692 92.0123573,41.3208034 90.9432155,41.3220516 C90.5378403,41.3220516 89.6434561,41.3220516 89.6434561,41.3220516 L89.6434561,41.3220516 Z" id="Fill-9"></path>
                    <path d="M117.264826,37.3491255 L117.264826,54.3580302 L121.87749,54.3580302 L121.87749,43.3389412 C121.734875,41.253709 124.180233,41.4294027 124.037306,43.3389412 L124.037306,54.3580302 L128.50361,54.3580302 L128.50361,41.9112343 C128.570081,36.7833479 124.04386,36.2568907 121.694307,39.0558204 L121.694307,37.3453807 L117.264826,37.3491255" id="Fill-10"></path>
                    <path d="M0.304265413,37.3366428 L0.301144742,54.3442992 L4.75246971,54.3442992 L4.75246971,47.6220621 C9.4624983,47.6248707 11.5804976,47.8058696 11.5804976,42.5175807 C11.5804976,37.2292918 10.7691232,37.3213516 4.74716457,37.3297774 L0.304265413,37.3366428 Z M4.83703989,41.3342223 L4.83703989,43.6085672 L6.5343728,43.6085672 C7.22591347,43.6085672 7.35979025,41.5139729 6.50035748,41.3342223 C5.95736075,41.2324884 4.83703989,41.3342223 4.83703989,41.3342223 L4.83703989,41.3342223 Z" id="Fill-11"></path>
                    <path d="M23.4056559,47.9363136 C23.4468487,52.5689496 22.8664039,54.1817123 19.2301982,54.3015461 L16.7180581,54.3355614 C12.4343132,54.2235293 12.7463803,49.6261569 12.7463803,48.7002539 L12.7463803,42.6068319 C12.7803956,37.3625444 15.1805036,37.5201383 16.5317541,37.3625444 L19.5981253,37.3625444 C21.3522544,37.3625444 23.4056559,37.46303 23.4056559,42.5222617 L23.4056559,47.9363136 Z M17.7903207,41.3420239 L18.359531,41.3420239 C18.6778395,41.3420239 18.9381034,41.6022879 18.9381034,41.9205963 L18.9381034,49.8539659 C18.9381034,50.1719623 18.6778395,50.4322262 18.359531,50.4322262 L17.7903207,50.4322262 C17.4723243,50.4322262 17.2120603,50.1719623 17.2120603,49.8539659 L17.2120603,41.9205963 C17.2120603,41.6022879 17.4723243,41.3420239 17.7903207,41.3420239 L17.7903207,41.3420239 Z" id="Fill-12"></path>
                </g>
            </g>
        </g>
    </g>
</svg>