<?xml version="1.0" encoding="UTF-8" standalone="no"?>
<svg width="151px" height="25px" viewBox="0 0 151 25" version="1.1" xmlns="http://www.w3.org/2000/svg" xmlns:xlink="http://www.w3.org/1999/xlink">
    <!-- Generator: Sketch 45.1 (43504) - http://www.bohemiancoding.com/sketch -->
    <title>caterpillar-seeklogo.com copy 2</title>
    <desc>Created with Sketch.</desc>
    <defs>
        <polygon id="path-1" points="154.732079 24.4572713 0.0163157247 24.4572713 0.0163157247 0.0195788696 77.3741972 0.0195788696 154.732079 0.0195788696"></polygon>
    </defs>
    <g id="01-Home" stroke="none" stroke-width="1" fill="none" fill-rule="evenodd">
        <g id="01-home-mobile-1280" transform="translate(-1044.000000, -2571.000000)">
            <g id="Group-5" transform="translate(79.000000, 2545.000000)">
                <g id="caterpillar-seeklogo.com-copy-2" transform="translate(965.374755, 26.174435)">
                    <g id="Group-16">
                        <mask id="mask-2" fill="white">
                            <use xlink:href="#path-1"></use>
                        </mask>
                        <g id="Clip-3"></g>
                        <path d="M11.6885852,20.1858146 L6.61765793,24.3169561 C6.46102698,24.3169561 6.30439602,24.3365349 6.16734393,24.3365349 C1.44883635,24.3365349 0,22.4178057 0,18.3454008 L0,6.03029185 C0,1.95788696 1.44883635,0.0195788696 6.16734393,0.0195788696 C11.0229036,0.0195788696 12.47174,1.95788696 12.47174,6.03029185 L12.47174,10.1810122 L7.65533802,10.1810122 L7.65533802,5.16882158 C7.65533802,4.40524567 7.08755081,4.01366827 6.30439602,4.01366827 C5.63871445,4.01366827 4.93387515,4.40524567 4.93387515,5.16882158 L4.93387515,19.2460288 C4.93387515,20.0291836 5.63871445,20.5382342 6.30439602,20.5382342 C6.97007759,20.5382342 7.65533802,20.127078 7.65533802,19.2460288 L7.65533802,14.4492058 L12.47174,14.4492058 L12.47174,18.3454008 C12.47174,18.8348726 12.2367935,19.7553514 11.6885852,20.1858146" id="Fill-4" fill="#BFBDBD" mask="url(#mask-2)"></path>
                        <path d="M21.1647581,11.6298486 L19.7159217,11.6298486 L21.1647581,5.0905061 L21.1647581,5.11008497 L22.6135944,11.6298486 L21.1647581,11.6298486 Z M25.0022165,0.763575916 L17.5622461,0.763575916 L13.5289989,18.776136 L21.1647581,12.608792 L21.3018102,12.5108977 L29.0354637,18.776136 L25.0022165,0.763575916 L25.0022165,0.763575916 Z" id="Fill-5" fill="#BFBDBD" mask="url(#mask-2)"></path>
                        <polyline id="Fill-6" fill="#BFBDBD" mask="url(#mask-2)" points="36.1230145 24.473587 31.6590322 20.8906539 31.6590322 5.26671593 28.0956779 5.26671593 28.0956779 0.763575916 40.70447 0.763575916 40.70447 5.26671593 37.1606946 5.26671593 37.1606946 24.473587 36.1230145 24.473587"></polyline>
                        <polyline id="Fill-7" fill="#BFBDBD" mask="url(#mask-2)" points="42.0945697 24.473587 53.763576 24.473587 53.763576 20.0683414 47.2046547 20.0683414 47.2046547 14.4687847 52.706317 14.4687847 52.706317 10.1222756 47.2046547 10.1222756 47.2046547 5.11008497 53.4111563 5.11008497 53.4111563 0.763575916 42.0945697 0.763575916 42.0945697 24.473587"></polyline>
                        <path d="M64.6102698,8.69301811 C64.6102698,9.61322499 63.7879572,10.1614333 63.0243813,10.2397488 C62.9656447,10.2593277 62.8873292,10.2593277 62.8285926,10.2593277 L61.418914,10.2593277 L61.418914,4.65977097 L63.0243813,4.69892871 L63.1222757,4.69892871 C64.0816403,4.71850758 64.6102698,5.32545254 64.6102698,6.34355376 L64.6102698,8.69301811 Z M69.7203547,21.5954932 L69.7203547,15.8393055 C69.7203547,13.1765793 68.1540452,12.3934245 66.7835243,12.0997414 L66.7835243,12.0018471 C67.879941,11.6102697 69.7203547,10.3768009 69.7203547,7.89028446 L69.7203547,5.11008497 C69.7203547,2.36904323 66.9988919,0.763575916 64.6690064,0.763575916 L56.2305136,0.763575916 L56.2305136,24.473587 L61.418914,24.473587 L61.418914,14.0967861 L63.0243813,14.0772073 L63.0831179,14.0772073 C63.8858516,14.0576284 64.7473219,15.0561507 64.7473219,15.7805689 L64.7473219,21.4975989 C64.7473219,22.6919099 64.8843739,23.6708534 65.2367936,24.473587 L70.1902476,24.473587 C69.837828,23.6708534 69.7203547,22.6919099 69.7203547,21.5954932 L69.7203547,21.5954932 Z" id="Fill-8" fill="#BFBDBD" mask="url(#mask-2)"></path>
                        <path d="M144.824899,8.69301811 C144.824899,9.61322499 144.002858,10.1614333 143.219431,10.2397488 C143.160695,10.2593277 143.101958,10.2593277 143.043222,10.2593277 L141.633543,10.2593277 L141.633543,4.65977097 L143.219431,4.69892871 L143.317326,4.69892871 C144.296269,4.71850758 144.824899,5.32545254 144.824899,6.34355376 L144.824899,8.69301811 Z M149.915405,21.5954932 L149.915405,15.8393055 C149.915405,13.1765793 148.368674,12.3934245 146.978574,12.0997414 L146.978574,12.0018471 C148.074991,11.6102697 149.915405,10.3768009 149.915405,7.89028446 L149.915405,5.11008497 C149.915405,2.36904323 147.213521,0.763575916 144.864328,0.763575916 L136.425564,0.763575916 L136.425564,24.473587 L141.633543,24.473587 L141.633543,14.0967861 L143.219431,14.0772073 L143.278168,14.0772073 C144.10048,14.0576284 144.961951,15.0561507 144.961951,15.7805689 L144.961951,21.4975989 C144.961951,22.6919099 145.079696,23.6708534 145.431844,24.473587 L150.385298,24.473587 C150.032878,23.6708534 149.915405,22.6919099 149.915405,21.5954932 L149.915405,21.5954932 Z" id="Fill-9" fill="#BFBDBD" mask="url(#mask-2)"></path>
                        <path d="M79.0594756,10.9054304 C78.8832657,10.9250093 78.7070559,10.9250093 78.4916883,10.9250093 L77.5127449,10.9250093 L77.5127449,4.8359808 L78.3742151,4.8359808 C78.6287404,4.8359808 78.8639588,4.85555967 79.0594756,4.87513854 C80.8998893,5.0905061 80.6257851,6.26523828 80.6257851,7.90986333 C80.6257851,9.45659403 80.9194682,10.7096417 79.0594756,10.9054304 Z M81.1544146,0.763575916 L72.3635021,0.763575916 L72.3635021,24.473587 L77.5127449,24.473587 L77.5127449,14.9190987 L80.1754711,14.9190987 C84.5807168,14.9190987 85.7358701,12.6871075 85.7358701,7.59660142 C85.7358701,4.50314001 85.0310308,0.763575916 81.1544146,0.763575916 L81.1544146,0.763575916 Z" id="Fill-10" fill="#BFBDBD" mask="url(#mask-2)"></path>
                        <polygon id="Fill-11" fill="#BFBDBD" mask="url(#mask-2)" points="87.4392318 24.4572713 92.5297379 24.4572713 92.5297379 0.763575916 87.4392318 0.763575916"></polygon>
                        <polyline id="Fill-12" fill="#BFBDBD" mask="url(#mask-2)" points="95.5448838 24.473587 106.35242 24.473587 106.35242 20.0291836 100.792021 20.0291836 100.792021 0.763575916 95.5448838 0.763575916 95.5448838 24.473587"></polyline>
                        <polyline id="Fill-13" fill="#BFBDBD" mask="url(#mask-2)" points="107.703362 24.473587 118.491319 24.473587 118.491319 20.0291836 112.93092 20.0291836 112.93092 0.763575916 107.703362 0.763575916 107.703362 24.473587"></polyline>
                        <path d="M127.027706,15.9371999 L125.696343,15.9371999 L127.027706,5.36461028 L127.066864,5.11008497 L128.359069,15.9371999 L127.027706,15.9371999 Z M130.493166,0.763575916 L123.483931,0.763575916 L119.450684,24.473587 L124.639356,24.473587 L125.206871,20.1858146 L129.063909,20.1858146 L129.572959,24.473587 L134.996306,24.473587 L130.493166,0.763575916 L130.493166,0.763575916 Z" id="Fill-14" fill="#BFBDBD" mask="url(#mask-2)"></path>
                        <polyline id="Fill-15" fill="#BFBDBD" mask="url(#mask-2)" points="21.321389 14.4492058 8.88880681 24.473587 33.7539712 24.473587 21.321389 14.4492058"></polyline>
                    </g>
                </g>
            </g>
        </g>
    </g>
</svg>