<?xml version="1.0" encoding="utf-8"?>
<!-- Generator: Adobe Illustrator 19.2.1, SVG Export Plug-In . SVG Version: 6.00 Build 0)  -->
<svg version="1.1" id="Capa_1" xmlns="http://www.w3.org/2000/svg" xmlns:xlink="http://www.w3.org/1999/xlink" x="0px" y="0px"
	 viewBox="0 0 196 96.1" style="enable-background:new 0 0 196 96.1;" xml:space="preserve">
<style type="text/css">
	.st0{fill:#FFFFFF;}
	.st1{fill:#FDB913;}
</style>
<g>
	<g>
		<polygon class="st0" points="169.5,43.7 141.9,71.3 142.4,75.8 146.4,71.8 147.1,76.4 143,80.5 143.7,85.9 147.9,81.8 148.5,86.4 
			144.3,90.6 145,96.1 148.6,92.5 173.9,57.9 		"/>
		<path class="st1" d="M145.8,0.5c-1.4,1.4-8.1,8.3-10,17.6c-2,10.1,3,15.4,3.9,16.3c1.1,1.1,2.3,2.3,3.4,3.4
			c1.4,1.5,22.8,25.6,9,49.3c-1.4,2.4-3.3,5.1-6,7.8c9-9,18-18,27.1-27.1l14.1-14.1c0.3-0.3,2.8-2.8,2.5-6.6c-0.3-2.8-2-4.6-2.5-5
			C173.5,28.2,159.7,14.3,145.8,0.5z"/>
	</g>
	<g>
		<path class="st0" d="M36.5,60.9c-3.2,1.6-6.7,2.7-9.6,2.7c-8.7,0-15.5-6.7-15.5-15.4c0-8.6,6.7-15.3,15.5-15.3
			c4.8,0,9.8,2.1,13.5,5.5l2.4-3l-5.6-10.3c-3.3-1.1-6.8-1.8-10.2-1.8C11.5,23.3,0,34,0,48.2c0,14.3,11.3,25.1,26.2,25.1
			c6.8,0,14.8-2.6,19.9-6.4V48h-9.6V60.9z"/>
		<path class="st0" d="M115.1,46.7c5.3-1.4,8.5-5.5,8.5-10.8c0-7.6-6.7-12.3-17.6-12.3H91.2l-7.8,14.5v34.6h23.4
			c11.4,0,18.5-5.2,18.5-13.6C125.3,52.7,121.5,47.9,115.1,46.7z M94.5,32.7h11c4.2-0.1,6.7,1.9,6.7,5.3c0,3.4-2.5,5.5-6.7,5.5h-11
			V32.7z M105.5,63.7h-11V52.1h11c5.2-0.1,8.4,2.1,8.4,5.7C113.9,61.6,110.7,63.7,105.5,63.7z"/>
		<path class="st0" d="M69.5,56.9v15.9H58.4V57.2L40.2,23.6h11.2l12.6,22.1l12.3-22.1h11.2L69.5,56.9z"/>
	</g>
</g>
</svg>
